<svg width="93" height="15" viewBox="0 0 93 15" fill="none" xmlns="http://www.w3.org/2000/svg">
<path d="M7.78438 1.19067L9.62396 4.91746L13.7377 5.51874L10.761 8.41801L11.4635 12.5139L7.78438 10.5791L4.10523 12.5139L4.80772 8.41801L1.83105 5.51874L5.9448 4.91746L7.78438 1.19067Z" fill="#FF971D"/>
<path d="M27.0723 1.19067L28.9119 4.91746L33.0257 5.51874L30.049 8.41801L30.7515 12.5139L27.0723 10.5791L23.3932 12.5139L24.0957 8.41801L21.119 5.51874L25.2328 4.91746L27.0723 1.19067Z" fill="#FF971D"/>
<path d="M46.3603 1.19067L48.1999 4.91746L52.3136 5.51874L49.337 8.41801L50.0395 12.5139L46.3603 10.5791L42.6812 12.5139L43.3836 8.41801L40.407 5.51874L44.5207 4.91746L46.3603 1.19067Z" fill="#FF971D"/>
<path d="M65.6483 1.19067L67.4879 4.91746L71.6016 5.51874L68.6249 8.41801L69.3274 12.5139L65.6483 10.5791L61.9691 12.5139L62.6716 8.41801L59.6949 5.51874L63.8087 4.91746L65.6483 1.19067Z" fill="#FF971D"/>
<path d="M84.9364 1.19067L86.7759 4.91746L90.8897 5.51874L87.913 8.41801L88.6155 12.5139L84.9364 10.5791L81.2572 12.5139L81.9597 8.41801L78.983 5.51874L83.0968 4.91746L84.9364 1.19067Z" fill="#DEDEDE"/>
</svg>
